<mxfile host="Electron" agent="Mozilla/5.0 (X11; Linux x86_64) AppleWebKit/537.36 (KHTML, like Gecko) draw.io/26.1.1 Chrome/132.0.6834.210 Electron/34.3.3 Safari/537.36" version="26.1.1">
  <diagram name="Page-1" id="FGagv1itl5cxwDZt4sbV">
    <mxGraphModel dx="995" dy="1815" grid="1" gridSize="10" guides="1" tooltips="1" connect="1" arrows="1" fold="1" page="1" pageScale="1" pageWidth="850" pageHeight="1100" math="0" shadow="0">
      <root>
        <mxCell id="0" />
        <mxCell id="1" parent="0" />
        <mxCell id="T5ZyZbR4qLd8hs1ymnvg-1" value="Правило" style="swimlane;fontStyle=0;childLayout=stackLayout;horizontal=1;startSize=30;horizontalStack=0;resizeParent=1;resizeParentMax=0;resizeLast=0;collapsible=1;marginBottom=0;whiteSpace=wrap;html=1;" parent="1" vertex="1">
          <mxGeometry x="460" y="-296" width="140" height="90" as="geometry" />
        </mxCell>
        <mxCell id="T5ZyZbR4qLd8hs1ymnvg-16" value="url перехода" style="text;strokeColor=none;fillColor=none;align=left;verticalAlign=middle;spacingLeft=4;spacingRight=4;overflow=hidden;points=[[0,0.5],[1,0.5]];portConstraint=eastwest;rotatable=0;whiteSpace=wrap;html=1;" parent="T5ZyZbR4qLd8hs1ymnvg-1" vertex="1">
          <mxGeometry y="30" width="140" height="30" as="geometry" />
        </mxCell>
        <mxCell id="T5ZyZbR4qLd8hs1ymnvg-20" value="Путь" style="text;strokeColor=none;fillColor=none;align=left;verticalAlign=middle;spacingLeft=4;spacingRight=4;overflow=hidden;points=[[0,0.5],[1,0.5]];portConstraint=eastwest;rotatable=0;whiteSpace=wrap;html=1;" parent="T5ZyZbR4qLd8hs1ymnvg-1" vertex="1">
          <mxGeometry y="60" width="140" height="30" as="geometry" />
        </mxCell>
        <mxCell id="T5ZyZbR4qLd8hs1ymnvg-4" value="Условие" style="swimlane;fontStyle=0;childLayout=stackLayout;horizontal=1;startSize=30;horizontalStack=0;resizeParent=1;resizeParentMax=0;resizeLast=0;collapsible=1;marginBottom=0;whiteSpace=wrap;html=1;" parent="1" vertex="1">
          <mxGeometry x="677" y="-196" width="140" height="120" as="geometry" />
        </mxCell>
        <mxCell id="T5ZyZbR4qLd8hs1ymnvg-5" value="тип условия" style="text;strokeColor=none;fillColor=none;align=left;verticalAlign=middle;spacingLeft=4;spacingRight=4;overflow=hidden;points=[[0,0.5],[1,0.5]];portConstraint=eastwest;rotatable=0;whiteSpace=wrap;html=1;" parent="T5ZyZbR4qLd8hs1ymnvg-4" vertex="1">
          <mxGeometry y="30" width="140" height="30" as="geometry" />
        </mxCell>
        <mxCell id="T5ZyZbR4qLd8hs1ymnvg-6" value="параметры" style="text;strokeColor=none;fillColor=none;align=left;verticalAlign=middle;spacingLeft=4;spacingRight=4;overflow=hidden;points=[[0,0.5],[1,0.5]];portConstraint=eastwest;rotatable=0;whiteSpace=wrap;html=1;" parent="T5ZyZbR4qLd8hs1ymnvg-4" vertex="1">
          <mxGeometry y="60" width="140" height="30" as="geometry" />
        </mxCell>
        <mxCell id="T5ZyZbR4qLd8hs1ymnvg-14" value="Правило" style="text;strokeColor=none;fillColor=none;align=left;verticalAlign=middle;spacingLeft=4;spacingRight=4;overflow=hidden;points=[[0,0.5],[1,0.5]];portConstraint=eastwest;rotatable=0;whiteSpace=wrap;html=1;" parent="T5ZyZbR4qLd8hs1ymnvg-4" vertex="1">
          <mxGeometry y="90" width="140" height="30" as="geometry" />
        </mxCell>
        <mxCell id="T5ZyZbR4qLd8hs1ymnvg-15" value="" style="endArrow=classic;html=1;rounded=0;exitX=1;exitY=0.75;exitDx=0;exitDy=0;entryX=0;entryY=0.5;entryDx=0;entryDy=0;edgeStyle=orthogonalEdgeStyle;" parent="1" source="T5ZyZbR4qLd8hs1ymnvg-1" target="T5ZyZbR4qLd8hs1ymnvg-6" edge="1">
          <mxGeometry width="50" height="50" relative="1" as="geometry">
            <mxPoint x="630" y="40" as="sourcePoint" />
            <mxPoint x="680" y="-10" as="targetPoint" />
          </mxGeometry>
        </mxCell>
        <mxCell id="T5ZyZbR4qLd8hs1ymnvg-18" value="Путь(path)" style="swimlane;fontStyle=0;childLayout=stackLayout;horizontal=1;startSize=30;horizontalStack=0;resizeParent=1;resizeParentMax=0;resizeLast=0;collapsible=1;marginBottom=0;whiteSpace=wrap;html=1;" parent="1" vertex="1">
          <mxGeometry x="280" y="-390" width="140" height="60" as="geometry" />
        </mxCell>
        <mxCell id="T5ZyZbR4qLd8hs1ymnvg-21" value="" style="endArrow=classic;html=1;rounded=0;edgeStyle=orthogonalEdgeStyle;exitX=1;exitY=0.75;exitDx=0;exitDy=0;entryX=0;entryY=0.5;entryDx=0;entryDy=0;" parent="1" source="T5ZyZbR4qLd8hs1ymnvg-18" target="T5ZyZbR4qLd8hs1ymnvg-16" edge="1">
          <mxGeometry width="50" height="50" relative="1" as="geometry">
            <mxPoint x="380" y="-110" as="sourcePoint" />
            <mxPoint x="430" y="-160" as="targetPoint" />
          </mxGeometry>
        </mxCell>
        <mxCell id="3LOCY1Dx-DxxEzPRdiZQ-1" value="Пользователь" style="swimlane;fontStyle=0;childLayout=stackLayout;horizontal=1;startSize=30;horizontalStack=0;resizeParent=1;resizeParentMax=0;resizeLast=0;collapsible=1;marginBottom=0;whiteSpace=wrap;html=1;" parent="1" vertex="1">
          <mxGeometry x="180" y="-850" width="140" height="60" as="geometry" />
        </mxCell>
        <mxCell id="3LOCY1Dx-DxxEzPRdiZQ-2" value="login" style="text;strokeColor=none;fillColor=none;align=left;verticalAlign=middle;spacingLeft=4;spacingRight=4;overflow=hidden;points=[[0,0.5],[1,0.5]];portConstraint=eastwest;rotatable=0;whiteSpace=wrap;html=1;" parent="3LOCY1Dx-DxxEzPRdiZQ-1" vertex="1">
          <mxGeometry y="30" width="140" height="30" as="geometry" />
        </mxCell>
        <mxCell id="3LOCY1Dx-DxxEzPRdiZQ-4" value="" style="endArrow=classic;html=1;rounded=0;edgeStyle=orthogonalEdgeStyle;entryX=1;entryY=0.25;entryDx=0;entryDy=0;exitX=0.75;exitY=0;exitDx=0;exitDy=0;" parent="1" source="T5ZyZbR4qLd8hs1ymnvg-4" target="3LOCY1Dx-DxxEzPRdiZQ-1" edge="1">
          <mxGeometry width="50" height="50" relative="1" as="geometry">
            <mxPoint x="400" y="-640" as="sourcePoint" />
            <mxPoint x="450" y="-690" as="targetPoint" />
          </mxGeometry>
        </mxCell>
        <mxCell id="3LOCY1Dx-DxxEzPRdiZQ-5" value="Запрос" style="swimlane;fontStyle=0;childLayout=stackLayout;horizontal=1;startSize=30;horizontalStack=0;resizeParent=1;resizeParentMax=0;resizeLast=0;collapsible=1;marginBottom=0;whiteSpace=wrap;html=1;" parent="1" vertex="1">
          <mxGeometry x="80" y="-690" width="140" height="90" as="geometry" />
        </mxCell>
        <mxCell id="3LOCY1Dx-DxxEzPRdiZQ-6" value="&lt;span style=&quot;text-align: center;&quot;&gt;Путь(path)&lt;/span&gt;" style="text;strokeColor=none;fillColor=none;align=left;verticalAlign=middle;spacingLeft=4;spacingRight=4;overflow=hidden;points=[[0,0.5],[1,0.5]];portConstraint=eastwest;rotatable=0;whiteSpace=wrap;html=1;" parent="3LOCY1Dx-DxxEzPRdiZQ-5" vertex="1">
          <mxGeometry y="30" width="140" height="30" as="geometry" />
        </mxCell>
        <mxCell id="3LOCY1Dx-DxxEzPRdiZQ-7" value="атрибуты запроса" style="text;strokeColor=none;fillColor=none;align=left;verticalAlign=middle;spacingLeft=4;spacingRight=4;overflow=hidden;points=[[0,0.5],[1,0.5]];portConstraint=eastwest;rotatable=0;whiteSpace=wrap;html=1;" parent="3LOCY1Dx-DxxEzPRdiZQ-5" vertex="1">
          <mxGeometry y="60" width="140" height="30" as="geometry" />
        </mxCell>
        <mxCell id="3LOCY1Dx-DxxEzPRdiZQ-8" value="Атрибут запроса" style="swimlane;fontStyle=0;childLayout=stackLayout;horizontal=1;startSize=30;horizontalStack=0;resizeParent=1;resizeParentMax=0;resizeLast=0;collapsible=1;marginBottom=0;whiteSpace=wrap;html=1;" parent="1" vertex="1">
          <mxGeometry x="285" y="-590" width="140" height="90" as="geometry" />
        </mxCell>
        <mxCell id="3LOCY1Dx-DxxEzPRdiZQ-9" value="&lt;span style=&quot;text-align: center;&quot;&gt;Имя&lt;/span&gt;" style="text;strokeColor=none;fillColor=none;align=left;verticalAlign=middle;spacingLeft=4;spacingRight=4;overflow=hidden;points=[[0,0.5],[1,0.5]];portConstraint=eastwest;rotatable=0;whiteSpace=wrap;html=1;" parent="3LOCY1Dx-DxxEzPRdiZQ-8" vertex="1">
          <mxGeometry y="30" width="140" height="30" as="geometry" />
        </mxCell>
        <mxCell id="3LOCY1Dx-DxxEzPRdiZQ-10" value="Значение" style="text;strokeColor=none;fillColor=none;align=left;verticalAlign=middle;spacingLeft=4;spacingRight=4;overflow=hidden;points=[[0,0.5],[1,0.5]];portConstraint=eastwest;rotatable=0;whiteSpace=wrap;html=1;" parent="3LOCY1Dx-DxxEzPRdiZQ-8" vertex="1">
          <mxGeometry y="60" width="140" height="30" as="geometry" />
        </mxCell>
        <mxCell id="3LOCY1Dx-DxxEzPRdiZQ-11" value="" style="endArrow=classic;html=1;rounded=0;edgeStyle=orthogonalEdgeStyle;exitX=0;exitY=0.5;exitDx=0;exitDy=0;entryX=1;entryY=0.5;entryDx=0;entryDy=0;" parent="1" source="3LOCY1Dx-DxxEzPRdiZQ-9" target="3LOCY1Dx-DxxEzPRdiZQ-7" edge="1">
          <mxGeometry width="50" height="50" relative="1" as="geometry">
            <mxPoint x="410" y="-395" as="sourcePoint" />
            <mxPoint x="450" y="-301" as="targetPoint" />
          </mxGeometry>
        </mxCell>
        <mxCell id="k8nj4ZYD5TrgTCopgX24-1" value="" style="endArrow=none;html=1;rounded=0;curved=1;strokeColor=default;strokeWidth=2;startFill=0;" edge="1" parent="1">
          <mxGeometry width="50" height="50" relative="1" as="geometry">
            <mxPoint x="30" y="-720" as="sourcePoint" />
            <mxPoint x="440" y="-890" as="targetPoint" />
            <Array as="points">
              <mxPoint x="300" y="-730" />
              <mxPoint x="440" y="-850" />
            </Array>
          </mxGeometry>
        </mxCell>
        <mxCell id="k8nj4ZYD5TrgTCopgX24-2" value="" style="endArrow=none;html=1;rounded=0;curved=1;startFill=0;strokeWidth=2;" edge="1" parent="1">
          <mxGeometry width="50" height="50" relative="1" as="geometry">
            <mxPoint x="580" y="40" as="sourcePoint" />
            <mxPoint x="790" y="-300" as="targetPoint" />
            <Array as="points">
              <mxPoint x="-230" y="-690" />
            </Array>
          </mxGeometry>
        </mxCell>
        <mxCell id="k8nj4ZYD5TrgTCopgX24-4" value="" style="endArrow=none;html=1;rounded=0;curved=1;strokeColor=default;strokeWidth=2;startFill=0;" edge="1" parent="1">
          <mxGeometry width="50" height="50" relative="1" as="geometry">
            <mxPoint x="70" y="-480" as="sourcePoint" />
            <mxPoint x="30" y="-710" as="targetPoint" />
            <Array as="points">
              <mxPoint x="680" y="-440" />
              <mxPoint x="735" y="-685" />
            </Array>
          </mxGeometry>
        </mxCell>
      </root>
    </mxGraphModel>
  </diagram>
</mxfile>
